<svg id="Layer_1" data-name="Layer 1" xmlns="http://www.w3.org/2000/svg" viewBox="0 0 188.09 197.19"><defs><style>.cls-1{fill:#1c101d;}.cls-2{fill:#2257ae;}.cls-3{fill:#dd4047;}</style></defs><polygon class="cls-1" points="11.13 140.76 20.47 141.76 34.56 10.34 160.31 23.82 160.31 14.38 107.57 8.72 25.29 8.72 25.23 9.34 11.13 140.76"/><polygon class="cls-2" points="35.56 1 26.23 0 25.29 8.72 107.57 8.72 35.56 1"/><polygon class="cls-2" points="174 187.85 188.09 56.43 178.75 55.43 164.66 186.85 33.24 172.76 32.23 182.1 163.66 196.19 173 197.19 174 187.85"/><polygon class="cls-2" points="165.99 24.43 166.99 15.09 160.31 14.38 160.31 23.82 165.99 24.43"/><polygon class="cls-3" points="160.31 23.82 34.56 10.34 20.47 141.76 11.13 140.76 25.23 9.34 25.29 8.72 0 8.72 0 169.03 160.31 169.03 160.31 23.82"/><polygon class="cls-3" points="160.31 8.72 107.57 8.72 160.31 14.38 160.31 8.72"/></svg>