<?xml version="1.0" standalone="no"?>
<!DOCTYPE svg PUBLIC "-//W3C//DTD SVG 20010904//EN"
 "http://www.w3.org/TR/2001/REC-SVG-20010904/DTD/svg10.dtd">
<svg version="1.0" xmlns="http://www.w3.org/2000/svg"
 width="260.000000pt" height="260.000000pt" viewBox="0 0 260.000000 260.000000"
 preserveAspectRatio="xMidYMid meet">
<metadata>
Created by potrace 1.11, written by Peter Selinger 2001-2013
</metadata>
<g transform="translate(0.000000,260.000000) scale(0.100000,-0.100000)"
fill="#000000" stroke="none">
<path d="M415 2577 c-2 -6 -6 -32 -8 -57 l-4 -45 -166 0 -167 1 0 -1053 0
-1053 1049 0 c830 0 1050 3 1053 13 2 6 4 438 4 959 -1 633 2 944 9 939 15
-10 65 -14 65 -4 0 4 3 31 6 59 6 47 4 52 -18 57 -12 4 -33 7 -45 7 -16 0 -21
5 -18 19 2 11 1 28 -1 38 -5 17 -22 18 -295 18 -159 0 -289 -3 -289 -7 0 -5
-5 -8 -11 -8 -5 0 -8 4 -5 8 3 5 -27 8 -67 7 -40 -1 -80 3 -91 8 -12 6 -21 5
-26 -3 -5 -7 -9 -8 -11 -2 -2 5 -33 13 -69 16 -36 4 -78 8 -95 11 -16 2 -61 7
-100 10 -69 6 -85 8 -175 19 -25 4 -70 8 -100 11 -30 3 -75 7 -100 10 -25 3
-67 7 -95 10 -64 7 -129 14 -183 20 -29 3 -44 1 -47 -8z"/>
<path d="M2419 1858 c-4 -15 -8 -50 -14 -106 -3 -37 -8 -80 -10 -97 -3 -16 -7
-57 -10 -90 -3 -33 -9 -96 -15 -140 -5 -44 -12 -109 -15 -145 -4 -36 -8 -76
-10 -90 -3 -25 -9 -80 -20 -190 -8 -78 -15 -149 -20 -190 -5 -43 -12 -106 -20
-185 -3 -33 -8 -71 -10 -85 -2 -14 -6 -55 -10 -92 -3 -37 -7 -75 -9 -85 -5
-24 -19 -172 -19 -202 -1 -23 -2 -23 -80 -16 -44 3 -88 8 -98 10 -11 2 -56 7
-101 10 -45 3 -84 8 -87 10 -4 1 -44 6 -91 10 -47 4 -92 8 -100 10 -8 2 -44 6
-80 9 -36 4 -81 9 -100 11 -19 2 -66 7 -105 11 -38 3 -76 7 -85 9 -8 2 -49 6
-90 10 -41 3 -86 8 -100 10 -24 4 -58 7 -180 20 -30 3 -71 8 -90 10 -19 2 -62
7 -95 10 -77 8 -138 14 -197 21 -43 5 -48 3 -52 -18 -10 -44 -14 -98 -7 -99 3
0 13 -2 21 -3 8 -2 50 -7 92 -10 43 -4 90 -9 105 -11 16 -2 57 -6 93 -10 36
-3 76 -8 90 -10 14 -2 57 -6 95 -10 39 -3 81 -8 95 -10 14 -2 52 -7 85 -10 33
-3 98 -10 145 -15 47 -5 112 -12 145 -15 58 -6 85 -9 170 -19 22 -3 67 -8 100
-11 33 -3 78 -8 100 -10 22 -3 63 -7 90 -10 28 -3 68 -7 90 -10 22 -2 67 -7
100 -10 33 -4 74 -8 90 -10 124 -16 141 -16 141 2 1 28 13 159 24 253 6 47 13
108 16 135 2 28 7 66 9 85 2 19 7 66 10 103 4 37 8 77 10 88 2 10 7 58 10 107
4 48 9 89 10 92 2 3 6 37 10 75 3 39 10 106 15 150 5 44 12 105 15 135 10 103
16 155 20 190 4 35 10 83 20 190 3 30 7 71 10 90 15 117 15 140 3 141 -7 0
-34 2 -60 5 -27 2 -48 3 -49 2z"/>
</g>
</svg>
