<svg xmlns="http://www.w3.org/2000/svg" viewBox="0 0 261.02 261.02"><defs><style>.cls-1{fill:none;}.cls-2{fill:#e54545;}.cls-3{fill:#1d1721;}.cls-4{fill:#0058b7;}.cls-5{fill:#fff;}</style></defs><g id="artwork"><polygon class="cls-1" points="80.56 49.26 81.28 49.26 80.57 49.19 80.56 49.26"/><polygon class="cls-2" points="105.13 51.83 81.28 49.26 80.56 49.26 80.28 51.83 65.78 186.41 60.15 185.81 74.45 52.46 74.52 51.83 74.79 49.26 49.19 49.26 49.19 211.92 81.13 211.92 81.23 210.94 90.28 211.92 211.85 211.92 211.85 63.33 211.51 63.29 105.13 51.83"/><polygon class="cls-2" points="158 51.83 211.51 57.57 211.85 57.61 211.85 49.26 134.04 49.26 158 51.83 158 51.83"/><polygon class="cls-3" points="74.45 52.46 60.15 185.81 65.78 186.41 80.28 51.83 80.56 49.26 74.79 49.26 74.52 51.83 74.45 52.46"/><polygon class="cls-3" points="211.51 57.57 158 51.83 158 51.83 134.04 49.26 81.28 49.26 105.13 51.83 211.51 63.29 211.85 63.33 211.85 57.61 211.51 57.57"/><polygon class="cls-3" points="81.13 211.92 90.28 211.92 81.23 210.94 81.13 211.92"/><polygon class="cls-4" points="233.13 88.49 218.34 225.71 90.28 211.92 81.13 211.92 80.62 216.6 87.41 217.33 140.92 223.07 213.97 230.9 223.45 231.92 224.4 223.07 224.46 222.44 238.76 89.09 233.13 88.49"/><polygon class="cls-4" points="80.57 49.19 81.28 49.26 134.04 49.26 84.94 44 75.47 42.98 74.79 49.26 80.56 49.26 80.57 49.19"/><polygon class="cls-4" points="211.85 57.61 211.85 63.33 217.68 63.96 218.29 58.3 211.85 57.61"/><path class="cls-5" d="M142,162.12h5.66v33.16H142Z"/><path class="cls-5" d="M96.36,195.57a17.27,17.27,0,0,1-5.34-.89,20,20,0,0,1-5-2.43l1.16-4.43a17.89,17.89,0,0,0,4.77,2.5,15,15,0,0,0,4.89.85,4.32,4.32,0,0,0,4.77-4.68,3.75,3.75,0,0,0-1.35-3.09A18.79,18.79,0,0,0,95.33,181a20,20,0,0,1-7-3.78,7.61,7.61,0,0,1-2.26-5.84,9.11,9.11,0,0,1,2.7-6.9,10.12,10.12,0,0,1,7.34-2.59,15.48,15.48,0,0,1,5.22.89,14.21,14.21,0,0,1,4.31,2.34l-.91,4.27a18,18,0,0,0-4.29-2.31,12.27,12.27,0,0,0-4.21-.8,4.75,4.75,0,0,0-3.34,1.12,4,4,0,0,0-1.22,3.13,3.71,3.71,0,0,0,1.29,3A19,19,0,0,0,98.19,176a18.08,18.08,0,0,1,6.92,3.8,7.89,7.89,0,0,1,2.11,5.82,9.54,9.54,0,0,1-2.84,7.19Q101.54,195.57,96.36,195.57Z"/><path class="cls-5" d="M113.27,195.28V162.12h5.64v12.8h9.91v-12.8h5.63v33.16h-5.63v-16h-9.91v16Z"/><path class="cls-5" d="M155.25,195.28V162.12H174v4.39H160.89v11.61h10.86v4.39H160.89v12.77Z"/><path class="cls-5" d="M186.59,195.28V166.51h-7.76v-4.39H200v4.39h-7.75v28.77Z"/><path class="cls-5" d="M121,152.65V123.88h-7.75v-4.4h21.14v4.4h-7.75v28.77Z"/><polygon class="cls-5" points="142.04 119.48 142.04 152.65 144.46 152.65 147.69 152.65 147.69 122.79 147.69 119.48 142.04 119.48"/><path class="cls-5" d="M186.58,152.65V123.88h-7.75v-4.4H200v4.4h-7.75v28.77Z"/><path class="cls-5" d="M155.25,152.65V119.48h5.64v28.77H174v4.4Z"/></g></svg>