<?xml version="1.0" encoding="UTF-8"?>
<svg width="190px" height="190px" viewBox="0 0 190 190" version="1.1" xmlns="http://www.w3.org/2000/svg" xmlns:xlink="http://www.w3.org/1999/xlink">
    <!-- Generator: Sketch 64 (93537) - https://sketch.com -->
    <title>Logo_transparant</title>
    <desc>Created with Sketch.</desc>
    <g id="Page-1" stroke="none" stroke-width="1" fill="none" fill-rule="evenodd">
        <g id="Logo_transparant" fill="#FFFFFF" fill-rule="nonzero">
            <rect id="Rectangle" opacity="0.2" x="0.19" y="6.71" width="162.65" height="162.65"></rect>
            <polygon id="Path" points="56.13 9.28 162.51 20.74 162.85 20.77 168.68 21.4 169.29 15.74 162.85 15.05 162.51 15.01 109 9.28 85.04 6.71 35.94 1.44 26.47 0.42 25.79 6.71 25.52 9.28 25.45 9.9 11.15 143.25 16.78 143.85 31.28 9.28 31.56 6.71 32.28 6.71"></polygon>
            <polygon id="Path" points="184.13 45.93 169.34 183.16 41.28 169.36 41.28 169.36 32.23 168.38 32.13 169.36 31.62 174.05 38.41 174.77 91.92 180.51 164.97 188.34 174.45 189.36 175.4 180.51 175.46 179.89 189.76 46.54"></polygon>
            <rect id="Rectangle" x="93.04" y="119.56" width="5.66" height="33.16"></rect>
            <path d="M47.82,148.62 C46.1541082,148.610178 44.5014896,148.322913 42.93,147.77 C41.2226065,147.17847 39.6144394,146.332244 38.16,145.26 L37,149.7 C38.5455275,150.736116 40.2285374,151.550692 42,152.12 C43.7210327,152.700003 45.5238872,153.000478 47.34,153.01 C50.8,153.01 53.4666667,152.093333 55.34,150.26 C57.2582473,148.366956 58.2893755,145.752828 58.18,143.06 C58.298902,140.913562 57.5368296,138.811542 56.07,137.24 C54.0702847,135.482905 51.7074257,134.188796 49.15,133.45 C47.32094,132.894264 45.5851289,132.068489 44,131 C43.1293496,130.253193 42.6531065,129.145651 42.71,128 C42.6346152,126.824774 43.0809367,125.676045 43.93,124.86 C44.8611473,124.076849 46.0549559,123.67653 47.27,123.74 C48.7093962,123.757646 50.134459,124.028441 51.48,124.54 C53.0080873,125.112004 54.4513061,125.889122 55.77,126.85 L56.68,122.58 C55.3850237,121.563363 53.9279451,120.77228 52.37,120.24 C50.6927954,119.650485 48.9277916,119.349555 47.15,119.35 C44.4558888,119.200288 41.8135466,120.132668 39.81,121.94 C37.9752213,123.75501 36.994317,126.261766 37.11,128.84 C36.9926944,131.023369 37.8152623,133.152583 39.37,134.69 C41.4252101,136.405882 43.806298,137.688268 46.37,138.46 C48.1168661,139.025105 49.7712061,139.843852 51.28,140.89 C52.1909192,141.646035 52.6913683,142.7878 52.63,143.97 C52.7411956,145.259075 52.2714417,146.530539 51.3488394,147.437668 C50.4262371,148.344797 49.1470097,148.792981 47.86,148.66 L47.82,148.62 Z" id="Path"></path>
            <polygon id="Path" points="85.45 152.72 85.45 119.56 79.81 119.56 79.81 132.37 69.91 132.37 69.91 119.56 64.27 119.56 64.27 152.72 69.91 152.72 69.91 136.76 79.81 136.76 79.81 152.72"></polygon>
            <polygon id="Path" points="124.94 123.95 124.94 119.56 106.25 119.56 106.25 152.72 111.89 152.72 111.89 139.95 122.75 139.95 122.75 135.56 111.89 135.56 111.89 123.95"></polygon>
            <polygon id="Path" points="143.22 152.72 143.22 123.95 150.97 123.95 150.97 119.56 129.83 119.56 129.83 123.95 137.59 123.95 137.59 152.72"></polygon>
            <polygon id="Path" points="77.68 110.09 77.68 81.32 85.43 81.32 85.43 76.93 64.29 76.93 64.29 81.32 72.04 81.32 72.04 110.09"></polygon>
            <polygon id="Path" points="98.69 110.09 98.69 80.24 98.69 76.93 93.04 76.93 93.04 110.09 95.46 110.09"></polygon>
            <polygon id="Path" points="124.98 105.7 111.89 105.7 111.89 76.93 106.25 76.93 106.25 110.09 124.98 110.09"></polygon>
            <polygon id="Path" points="143.22 110.09 143.22 81.32 150.97 81.32 150.97 76.93 129.83 76.93 129.83 81.32 137.58 81.32 137.58 110.09"></polygon>
        </g>
    </g>
</svg>