<svg xmlns="http://www.w3.org/2000/svg" viewBox="0 0 261.02 261.02"><defs><style>.cls-1,.cls-2{fill:#fff;}.cls-1{opacity:0.2;}</style></defs><g id="artwork"><rect class="cls-1" x="46.19" y="48.71" width="162.65" height="162.65"/><polygon class="cls-2" points="102.13 51.28 208.51 62.74 208.85 62.77 214.68 63.4 215.29 57.74 208.85 57.05 208.51 57.01 155 51.28 131.04 48.71 81.94 43.44 72.47 42.42 71.79 48.71 71.52 51.28 71.45 51.9 57.15 185.25 62.78 185.85 77.28 51.28 77.56 48.71 78.28 48.71 102.13 51.28"/><polygon class="cls-2" points="230.13 87.93 215.34 225.16 87.28 211.36 87.28 211.36 78.23 210.38 78.13 211.36 77.62 216.05 84.41 216.77 137.92 222.51 210.97 230.34 220.45 231.36 221.4 222.51 221.46 221.89 235.76 88.54 230.13 87.93"/><rect class="cls-2" x="139.04" y="161.56" width="5.66" height="33.16"/><path class="cls-2" d="M93.82,190.62a15,15,0,0,1-4.89-.85,17.93,17.93,0,0,1-4.77-2.51L83,191.7a19.93,19.93,0,0,0,5,2.42,17,17,0,0,0,5.34.89q5.19,0,8-2.75a9.57,9.57,0,0,0,2.84-7.2,7.89,7.89,0,0,0-2.11-5.82,18.09,18.09,0,0,0-6.92-3.79A19.2,19.2,0,0,1,90,173a3.71,3.71,0,0,1-1.29-3,4,4,0,0,1,1.22-3.14,4.8,4.8,0,0,1,3.34-1.12,12.27,12.27,0,0,1,4.21.8,18,18,0,0,1,4.29,2.31l.91-4.27a14.65,14.65,0,0,0-4.31-2.34,15.73,15.73,0,0,0-5.22-.89,10.12,10.12,0,0,0-7.34,2.59,9.13,9.13,0,0,0-2.7,6.9,7.65,7.65,0,0,0,2.26,5.85,19.85,19.85,0,0,0,7,3.77,18.74,18.74,0,0,1,4.91,2.43,3.75,3.75,0,0,1,1.35,3.08,4.34,4.34,0,0,1-4.77,4.69Z"/><polygon class="cls-2" points="131.45 194.72 131.45 161.56 125.81 161.56 125.81 174.37 115.91 174.37 115.91 161.56 110.27 161.56 110.27 194.72 115.91 194.72 115.91 178.76 125.81 178.76 125.81 194.72 131.45 194.72"/><polygon class="cls-2" points="170.94 165.95 170.94 161.56 152.25 161.56 152.25 194.72 157.89 194.72 157.89 181.95 168.75 181.95 168.75 177.56 157.89 177.56 157.89 165.95 170.94 165.95"/><polygon class="cls-2" points="189.22 194.72 189.22 165.95 196.97 165.95 196.97 161.56 175.83 161.56 175.83 165.95 183.59 165.95 183.59 194.72 189.22 194.72"/><polygon class="cls-2" points="123.68 152.09 123.68 123.32 131.43 123.32 131.43 118.93 110.29 118.93 110.29 123.32 118.04 123.32 118.04 152.09 123.68 152.09"/><polygon class="cls-2" points="144.69 152.09 144.69 122.24 144.69 118.93 139.04 118.93 139.04 152.09 141.46 152.09 144.69 152.09"/><polygon class="cls-2" points="170.98 147.7 157.89 147.7 157.89 118.93 152.25 118.93 152.25 152.09 170.98 152.09 170.98 147.7"/><polygon class="cls-2" points="189.22 152.09 189.22 123.32 196.97 123.32 196.97 118.93 175.83 118.93 175.83 123.32 183.58 123.32 183.58 152.09 189.22 152.09"/></g></svg>