<?xml version="1.0" encoding="UTF-8"?>
<svg width="190px" height="189px" viewBox="0 0 190 189" version="1.1" xmlns="http://www.w3.org/2000/svg" xmlns:xlink="http://www.w3.org/1999/xlink">
    <!-- Generator: Sketch 64 (93537) - https://sketch.com -->
    <title>logo</title>
    <desc>Created with Sketch.</desc>
    <g id="Page-1" stroke="none" stroke-width="1" fill="none" fill-rule="evenodd">
        <g id="logo" transform="translate(0.000000, -1.000000)">
            <polygon id="Path" points="31.56 7.26 32.28 7.26 31.57 7.19"></polygon>
            <polygon id="Path" fill="#E54545" fill-rule="nonzero" points="56.13 9.83 32.28 7.26 31.56 7.26 31.28 9.83 16.78 144.41 11.15 143.81 25.45 10.46 25.52 9.83 25.79 7.26 0.19 7.26 0.19 169.92 32.13 169.92 32.23 168.94 41.28 169.92 162.85 169.92 162.85 21.33 162.51 21.29"></polygon>
            <polygon id="Path" fill="#E54545" fill-rule="nonzero" points="109 9.83 162.51 15.57 162.85 15.61 162.85 7.26 85.04 7.26 109 9.83"></polygon>
            <polygon id="Path" fill="#1D1721" fill-rule="nonzero" points="25.45 10.46 11.15 143.81 16.78 144.41 31.28 9.83 31.56 7.26 25.79 7.26 25.52 9.83"></polygon>
            <polygon id="Path" fill="#1D1721" fill-rule="nonzero" points="162.51 15.57 109 9.83 109 9.83 85.04 7.26 32.28 7.26 56.13 9.83 162.51 21.29 162.85 21.33 162.85 15.61"></polygon>
            <polygon id="Path" fill="#1D1721" fill-rule="nonzero" points="32.13 169.92 41.28 169.92 32.23 168.94"></polygon>
            <polygon id="Path" fill="#0058B7" fill-rule="nonzero" points="184.13 46.49 169.34 183.71 41.28 169.92 32.13 169.92 31.62 174.6 38.41 175.33 91.92 181.07 164.97 188.9 174.45 189.92 175.4 181.07 175.46 180.44 189.76 47.09"></polygon>
            <polygon id="Path" fill="#0058B7" fill-rule="nonzero" points="31.57 7.19 32.28 7.26 85.04 7.26 35.94 2 26.47 0.98 25.79 7.26 31.56 7.26"></polygon>
            <polygon id="Path" fill="#0058B7" fill-rule="nonzero" points="162.85 15.61 162.85 21.33 168.68 21.96 169.29 16.3"></polygon>
            <polygon id="Path" fill="#FFFFFF" fill-rule="nonzero" points="93 120.12 98.66 120.12 98.66 153.28 93 153.28"></polygon>
            <path d="M47.36,153.57 C45.5442809,153.555903 43.7421442,153.255547 42.02,152.68 C40.2483371,152.106713 38.5654168,151.288814 37.02,150.25 L38.18,145.82 C39.6347433,146.88925 41.2429609,147.732131 42.95,148.32 C44.5214896,148.872913 46.1741082,149.160178 47.84,149.17 C49.1268665,149.309999 50.4086955,148.865556 51.332692,147.958994 C52.2566885,147.052431 52.7254646,145.7793 52.61,144.49 C52.674588,143.304357 52.1738308,142.158179 51.26,141.4 C49.7428598,140.363242 48.0818456,139.554634 46.33,139 C43.767085,138.22146 41.386668,136.936035 39.33,135.22 C37.7735343,133.687835 36.9503939,131.560782 37.07,129.38 C36.9517791,126.801346 37.9330727,124.293596 39.77,122.48 C41.7735466,120.672668 44.4158888,119.740288 47.11,119.89 C48.8882028,119.88465 50.6540329,120.185721 52.33,120.78 C53.8914258,121.304315 55.3498076,122.096105 56.64,123.12 L55.73,127.39 C54.4113061,126.429122 52.9680873,125.652004 51.44,125.08 C50.094459,124.568441 48.6693962,124.297646 47.23,124.28 C46.0142646,124.211427 44.8186221,124.612361 43.89,125.4 C43.0436928,126.213732 42.5976126,127.358183 42.67,128.53 C42.6131065,129.675651 43.0893496,130.783193 43.96,131.53 C45.5670647,132.615414 47.3308297,133.448397 49.19,134 C51.7484277,134.741445 54.1114206,136.039042 56.11,137.8 C57.5768296,139.371542 58.338902,141.473562 58.22,143.62 C58.3302939,146.310038 57.298807,148.921443 55.38,150.81 C53.4866667,152.65 50.8133333,153.57 47.36,153.57 Z" id="Path" fill="#FFFFFF" fill-rule="nonzero"></path>
            <polygon id="Path" fill="#FFFFFF" fill-rule="nonzero" points="64.27 153.28 64.27 120.12 69.91 120.12 69.91 132.92 79.82 132.92 79.82 120.12 85.45 120.12 85.45 153.28 79.82 153.28 79.82 137.28 69.91 137.28 69.91 153.28"></polygon>
            <polygon id="Path" fill="#FFFFFF" fill-rule="nonzero" points="106.25 153.28 106.25 120.12 125 120.12 125 124.51 111.89 124.51 111.89 136.12 122.75 136.12 122.75 140.51 111.89 140.51 111.89 153.28"></polygon>
            <polygon id="Path" fill="#FFFFFF" fill-rule="nonzero" points="137.59 153.28 137.59 124.51 129.83 124.51 129.83 120.12 151 120.12 151 124.51 143.25 124.51 143.25 153.28"></polygon>
            <polygon id="Path" fill="#FFFFFF" fill-rule="nonzero" points="72 110.65 72 81.88 64.25 81.88 64.25 77.48 85.39 77.48 85.39 81.88 77.64 81.88 77.64 110.65"></polygon>
            <polygon id="Path" fill="#FFFFFF" fill-rule="nonzero" points="93.04 77.48 93.04 110.65 95.46 110.65 98.69 110.65 98.69 80.79 98.69 77.48"></polygon>
            <polygon id="Path" fill="#FFFFFF" fill-rule="nonzero" points="137.58 110.65 137.58 81.88 129.83 81.88 129.83 77.48 151 77.48 151 81.88 143.25 81.88 143.25 110.65"></polygon>
            <polygon id="Path" fill="#FFFFFF" fill-rule="nonzero" points="106.25 110.65 106.25 77.48 111.89 77.48 111.89 106.25 125 106.25 125 110.65"></polygon>
        </g>
    </g>
</svg>