<?xml version="1.0" encoding="UTF-8"?>
<svg width="613px" height="480px" viewBox="0 0 613 480" version="1.1" xmlns="http://www.w3.org/2000/svg" xmlns:xlink="http://www.w3.org/1999/xlink">
    <defs></defs>
    <g id="Page-1" stroke="none" stroke-width="1" fill="none" fill-rule="evenodd">
        <g id="map_marker" fill="#FFFFFF" fill-rule="nonzero">
            <path d="M517.316,271.52 L611.549,465.101 C615.381,472.974 611.353,479.415 602.597,479.415 L11.402,479.415 C2.646,479.415 -1.383,472.974 2.45,465.101 L96.684,271.52 C98.183,268.441 102.212,265.921 105.636,265.921 L186.437,265.921 C188.927,265.921 192.29,267.48 193.92,269.363 C199.402,275.698 204.986,281.887 210.554,288.013 C215.842,293.828 221.158,299.719 226.432,305.748 L130.541,305.748 C127.116,305.748 123.087,308.267 121.589,311.347 L59.163,439.589 L554.833,439.589 L492.412,311.347 C490.914,308.267 486.885,305.748 483.459,305.748 L387.351,305.748 C392.624,299.719 397.942,293.828 403.23,288.013 C408.815,281.869 414.43,275.692 419.925,269.355 C421.553,267.477 424.909,265.921 427.395,265.921 L508.366,265.921 C511.789,265.921 515.817,268.439 517.316,271.52 Z M445.541,139.228 C445.541,245.004 357.483,264.842 316.069,366.493 C312.704,374.753 301.075,374.711 297.709,366.453 C260.35,274.802 185.071,249.669 170.668,168.021 C156.487,87.642 212.139,8.906 293.397,1.225 C376.037,-6.587 445.541,58.204 445.541,139.228 Z M380.114,139.228 C380.114,98.792 347.335,66.012 306.898,66.012 C266.461,66.012 233.682,98.792 233.682,139.228 C233.682,179.665 266.461,212.444 306.898,212.444 C347.335,212.444 380.114,179.665 380.114,139.228 Z" id="Shape"></path>
        </g>
    </g>
</svg>
