<svg id="Layer_1" data-name="Layer 1" xmlns="http://www.w3.org/2000/svg" viewBox="0 0 750.47 267.74"><defs><style>.cls-1{fill:#fff;}.cls-2{fill:#dd4047;}.cls-3{fill:#2257ae;}</style></defs><polygon class="cls-1" points="44.05 259.65 44.05 259.58 44.04 259.65 44.05 259.65"/><rect class="cls-1" x="105.05" y="150.56" width="18.62" height="109.09"/><rect class="cls-1" x="522.9" y="150.56" width="18.62" height="109.09"/><polygon class="cls-1" points="178.16 150.56 159.61 150.56 159.61 259.65 214.16 259.65 214.16 245.19 178.16 245.19 178.16 150.56"/><polygon class="cls-1" points="270.14 259.65 270.14 259.32 270.11 259.65 270.14 259.65"/><path class="cls-1" d="M360.87,196.24q-12.83-4.62-17-8.15t-4.23-9.91q0-6.66,4-10.32t11-3.67a40.13,40.13,0,0,1,13.84,2.63,59.32,59.32,0,0,1,14.11,7.6l3-14a46.86,46.86,0,0,0-14.18-7.71,51.43,51.43,0,0,0-17.18-2.93q-15.27,0-24.14,8.52T321.19,181q0,12.27,7.43,19.22t22.84,12.41q11.73,4.36,16.16,8t4.43,10.16q0,7.09-4,11.25t-11.66,4.16a49.4,49.4,0,0,1-16.09-2.8,58.94,58.94,0,0,1-15.68-8.25l-3.82,14.59a65.65,65.65,0,0,0,16.5,8,56.43,56.43,0,0,0,17.59,2.93q17,0,26.39-9.07t9.34-23.65q0-12.15-7-19.16T360.87,196.24Z"/><polygon class="cls-1" points="468.3 192.69 435.71 192.69 435.71 150.56 417.17 150.56 417.17 259.65 435.71 259.65 435.71 207.15 468.3 207.15 468.3 259.65 486.85 259.65 486.85 150.56 468.3 150.56 468.3 192.69"/><polygon class="cls-1" points="581.17 259.65 599.72 259.65 599.72 217.65 635.44 217.65 635.44 203.19 599.72 203.19 599.72 165.01 642.67 165.01 642.67 150.56 581.17 150.56 581.17 259.65"/><polygon class="cls-1" points="714.27 207.38 714.34 206.71 714.34 165.01 739.84 165.01 739.84 150.56 670.3 150.56 670.3 165.01 680.2 165.01 680.32 163.92 680.38 163.32 685.7 163.9 695.56 164.95 700.12 165.44 699.52 171.06 695.8 170.66 695.8 259.65 708.66 259.65 708.79 258.44 714.27 207.38"/><polygon class="cls-1" points="270.07 207.38 270.14 206.71 270.14 165.01 295.64 165.01 295.64 150.56 226.09 150.56 226.09 165.01 236 165.01 236.12 163.92 236.18 163.32 241.5 163.9 251.35 164.95 255.91 165.44 255.31 171.06 251.59 170.66 251.59 259.65 264.46 259.65 264.59 258.44 270.07 207.38"/><polygon class="cls-1" points="43.97 207.38 44.05 206.71 44.05 165.01 69.55 165.01 69.55 150.56 0 150.56 0 165.01 9.91 165.01 10.02 163.92 10.09 163.32 15.4 163.9 25.26 164.95 29.82 165.44 29.22 171.06 25.5 170.66 25.5 259.65 38.37 259.65 38.49 258.44 43.97 207.38"/><polygon class="cls-1" points="413.01 14.41 336.97 6.25 328.44 85.73 322.8 85.12 331.32 5.65 331.36 5.27 316.06 5.27 316.06 102.22 413.01 102.22 413.01 14.41"/><polygon class="cls-1" points="413.01 5.27 381.12 5.27 413.01 8.69 413.01 5.27"/><polygon class="cls-2" points="680.2 165.01 679.78 168.94 695.58 170.64 695.8 170.66 695.8 165.01 680.2 165.01"/><polygon class="cls-2" points="744.85 161.39 743.91 170.14 718.56 167.42 714.34 206.71 714.34 259.65 708.66 259.65 708.46 261.52 695.64 260.14 695.04 265.76 713.48 267.74 723.58 173.64 748.93 176.37 750.47 161.99 744.85 161.39"/><polygon class="cls-2" points="236 165.01 235.58 168.94 251.38 170.64 251.59 170.66 251.59 165.01 236 165.01"/><polygon class="cls-2" points="300.65 161.39 299.71 170.14 274.36 167.42 270.14 206.71 270.14 259.65 264.46 259.65 264.26 261.52 251.44 260.14 250.83 265.76 269.27 267.74 279.37 173.64 304.73 176.37 306.27 161.99 300.65 161.39"/><polygon class="cls-2" points="9.91 165.01 9.48 168.94 25.28 170.64 25.5 170.66 25.5 165.01 9.91 165.01"/><polygon class="cls-2" points="74.56 161.39 73.62 170.14 48.26 167.42 44.05 206.71 44.05 259.65 38.37 259.65 38.16 261.52 25.34 260.14 24.74 265.76 43.18 267.74 53.28 173.64 78.63 176.37 80.17 161.99 74.56 161.39"/><polygon class="cls-2" points="337.57 0.6 331.93 0 331.36 5.27 381.12 5.27 337.57 0.6"/><polygon class="cls-2" points="421.29 113.6 429.81 34.12 424.16 33.52 415.64 113 336.16 104.47 335.56 110.12 415.04 118.64 420.68 119.25 421.29 113.6"/><polygon class="cls-2" points="416.44 14.77 417.05 9.13 413.01 8.69 413.01 14.41 416.44 14.77"/><polygon class="cls-3" points="700.12 165.44 695.56 164.95 685.7 163.9 680.38 163.32 680.32 163.92 680.2 165.01 695.8 165.01 695.8 170.66 699.52 171.06 700.12 165.44"/><polygon class="cls-3" points="714.34 206.71 714.27 207.38 708.79 258.44 708.66 259.65 714.34 259.65 714.34 206.71"/><polygon class="cls-3" points="255.91 165.44 251.35 164.95 241.5 163.9 236.18 163.32 236.12 163.92 236 165.01 251.59 165.01 251.59 170.66 255.31 171.06 255.91 165.44"/><polygon class="cls-3" points="270.14 206.71 270.07 207.38 264.59 258.44 264.46 259.65 270.14 259.65 270.14 206.71"/><polygon class="cls-3" points="29.82 165.44 25.26 164.95 15.4 163.9 10.09 163.32 10.02 163.92 9.91 165.01 25.5 165.01 25.5 170.66 29.22 171.06 29.82 165.44"/><polygon class="cls-3" points="44.05 206.71 43.97 207.38 38.49 258.44 38.37 259.65 44.05 259.65 44.05 206.71"/><polygon class="cls-3" points="322.8 85.12 328.44 85.73 336.97 6.25 413.01 14.41 413.01 8.69 381.12 5.27 331.36 5.27 331.32 5.65 322.8 85.12"/></svg>