<?xml version="1.0" encoding="UTF-8"?>
<svg width="325px" height="177px" viewBox="0 0 325 177" version="1.1" xmlns="http://www.w3.org/2000/svg" xmlns:xlink="http://www.w3.org/1999/xlink">
    <!-- Generator: Sketch 46.2 (44496) - http://www.bohemiancoding.com/sketch -->
    <title>TiltShift Banner</title>
    <desc>Created with Sketch.</desc>
    <defs></defs>
    <g id="Page-1" stroke="none" stroke-width="1" fill="none" fill-rule="evenodd">
        <g id="TiltShift-project" transform="translate(-103.000000, 0.000000)">
            <g id="TiltShift-Banner" transform="translate(102.500000, -5.000000)">
                <g id="Logo-Label" transform="translate(0.171875, 0.914062)" fill="#DF4C44">
                    <polygon id="Fill-422" points="324.559854 0.6286 324.559854 123.764964 0.689736328 181.012236 0.689736328 0.6286"></polygon>
                </g>
                <g id="TiltShift" transform="translate(48.644531, 33.170273)" fill="#FDFCFA">
                    <g id="text">
                        <path d="M37.1787,54.7542 C37.1787,54.7542 40.1417,50.8552 41.5997,52.1422 C43.0567,53.4302 43.0197,54.7992 41.7597,56.8202 C40.5597,58.7482 38.3237,60.5042 36.6927,59.4062 C35.0607,58.3092 37.1787,54.7542 37.1787,54.7542" id="Fill-479"></path>
                        <path d="M115.4287,63.7054 C114.3867,62.7144 109.7757,66.1954 100.9487,76.8114 C92.1197,87.4284 90.2957,91.5174 90.2957,91.5174 C90.2957,91.5174 87.7937,96.7314 90.7427,99.1814 C95.9467,103.5024 110.7747,94.5954 117.7417,85.5154 C124.7077,76.4344 128.5477,67.2354 127.6657,60.7704 C126.5127,52.3214 115.5967,46.3084 115.5497,40.1094 C115.5117,35.0514 122.2507,26.1144 130.7407,17.9634 C140.2257,8.8564 148.9767,3.7654 150.3397,5.1024 C152.7377,7.4564 139.1177,19.7084 139.1177,19.7084 C139.1177,19.7084 135.7777,22.8154 137.3827,24.8624 C138.4657,26.2424 142.1177,23.0494 142.1177,23.0494 C142.1177,23.0494 160.0067,7.3044 153.8427,1.3994 C148.7257,-3.5026 128.6087,11.9384 115.2467,29.7404 C110.3367,36.2834 109.4697,42.0074 115.6537,49.4224 C121.8357,56.8364 122.2557,57.5674 122.2557,57.5674 C122.2557,57.5674 123.8677,60.1674 123.4567,64.6324 C122.2197,78.0444 114.5047,86.4124 101.5517,94.6654 C91.4387,101.1094 92.5577,93.9704 95.9487,89.1874 C99.3377,84.4054 105.3767,76.2114 110.8907,70.5894 C116.2607,65.1144 116.4167,64.6444 115.4287,63.7054" id="Fill-481"></path>
                        <path d="M161.9375,14.3831 C161.9375,14.3831 163.2105,12.2671 164.5205,13.3121 C165.8305,14.3581 165.0675,15.6921 165.0675,15.6921 C165.0675,15.6921 143.4325,51.1991 144.1975,52.3411 C145.2295,53.8841 149.9595,47.2121 158.8035,44.7731 C160.4545,44.3181 159.0145,49.3121 158.0595,51.1131 C157.1035,52.9151 145.9315,72.6371 146.5465,72.1851 C157.9825,63.7671 169.6225,49.0201 174.5135,43.2701 C175.1985,42.4651 177.9295,40.6831 178.4095,41.6251 C179.1415,43.0651 173.2275,52.6201 168.7405,60.2371 C166.8715,63.4101 164.4455,68.1121 162.7155,70.5331 C161.9605,71.5901 160.8335,73.2251 159.8325,73.5591 C159.4885,73.6731 158.8335,73.8611 158.4065,73.6131 C156.2775,72.3791 166.9385,56.7011 166.9385,56.7011 C166.9385,56.7011 150.6205,76.2081 144.5605,76.2741 C144.5605,76.2741 141.2965,75.9931 142.0745,72.3951 C142.8525,68.7961 155.2535,49.4691 155.2535,49.4691 C155.2535,49.4691 139.6345,61.3901 137.2675,65.2351 C134.9015,69.0781 130.6205,78.5731 127.0285,79.3761 C123.6665,80.1271 135.4225,60.3801 135.4225,60.3801 L161.9375,14.3831 Z" id="Fill-483"></path>
                        <path d="M179.4238,30.0696 C179.4238,30.0696 181.3678,26.6156 183.2348,28.5686 C185.1938,30.6176 184.5158,31.4266 183.9818,32.6346 C183.3348,34.0976 181.3018,35.5006 179.6238,33.8136 C177.9458,32.1266 179.4238,30.0696 179.4238,30.0696" id="Fill-485"></path>
                        <path d="M189.5049,64.01 C189.1269,66.476 189.7559,67.432 191.9449,67.642 C195.8929,68.122 207.2709,59.914 207.8199,59.212 C208.1399,58.925 213.0089,53.41 213.0089,53.41 C213.0089,53.41 195.7309,64.128 194.6919,63.158 C193.6269,61.936 201.9589,49.567 202.4889,48.255 C203.0979,47.03 203.5569,46.403 204.1809,46 C204.6329,45.708 208.7029,42.414 210.5559,41.265 C212.7409,39.911 217.5379,36.345 217.5379,36.345 L206.3189,41.288 C206.3189,41.288 225.0999,6.708 225.5589,5.536 C226.0179,4.364 226.2549,3.07 225.3699,2.583 C224.4839,2.096 223.6669,2.737 223.0699,3.499 C222.4739,4.261 204.0789,38.209 201.6239,41.947 C200.7269,43.312 190.8809,46.52 190.8809,46.52 C190.8809,46.52 206.4249,16.348 211.4279,7.803 C212.1699,6.535 212.0199,5.516 211.6899,5.312 C211.1179,4.96 210.6469,4.415 209.3109,6.043 C202.6229,14.196 188.1649,43.969 188.1649,43.969 C188.1649,43.969 187.3529,45.509 185.8639,47.819 C185.1519,48.924 181.8509,49.237 180.5669,50.542 C179.8689,51.251 174.8959,55.984 174.8959,55.984 L182.9319,53.001 C182.9319,53.001 170.4989,75.515 167.4789,79.539 C165.2259,82.542 163.9599,85.127 161.7029,84.566 C158.7389,83.828 164.9629,76.722 164.0959,76.144 C163.3769,75.665 159.9049,78.313 158.4039,80.732 C156.4379,83.901 156.3379,86.784 158.4479,87.68 C164.0399,90.051 167.4859,85.286 168.9289,83.643 C175.7749,75.845 187.0209,51.586 189.8279,50.783 C192.6369,49.981 198.4359,47.607 198.4359,47.607 C198.4359,47.607 189.5519,62.659 189.5049,64.01" id="Fill-487"></path>
                        <path d="M8.0225,96.1585 C10.4425,96.6845 29.1025,69.6565 31.9745,67.8065 C34.8355,65.7205 36.8465,66.6015 35.3085,69.3875 C30.7925,77.5835 21.4995,92.0505 24.4455,93.6955 C26.9305,94.6205 43.6665,72.2605 48.8065,65.0545 C54.7875,57.9225 69.5645,29.2705 72.5765,29.4315 C75.0285,29.7755 72.2755,33.1535 71.6515,34.6045 C71.0165,36.0565 50.5165,69.7535 48.0005,76.2615 C45.4835,82.7675 43.9455,88.8235 45.0855,89.7695 C46.1185,90.9095 55.0775,78.2185 60.4445,71.5395 L56.1965,73.1525 L51.0975,75.0775 C51.0975,75.0775 53.4315,73.3565 55.0555,71.4425 C56.6685,69.5275 58.8635,67.5275 61.1865,67.1725 C64.4775,66.3445 65.4885,65.2255 66.2845,63.9455 C68.6615,60.1595 86.2685,29.8185 86.2685,29.8185 C86.2685,29.8185 87.0645,28.5285 87.6445,27.7535 C88.2145,26.9685 89.2045,25.8605 90.1075,26.3235 C91.0005,26.7855 90.6245,28.4315 89.7425,30.1095 C89.3115,31.2925 88.6675,32.3675 88.6675,32.3675 L69.9955,64.1495 L82.6115,60.1495 C82.6115,60.1495 80.0625,62.6125 78.8895,63.3865 C77.7075,64.1715 68.4895,68.5815 67.8765,69.0005 C67.2635,69.4205 66.8115,70.0655 66.2415,71.3025 C65.7475,72.6255 64.3055,75.8515 62.7785,78.9285 C61.2515,82.0145 59.2825,85.8335 60.3795,87.0265 C61.1115,87.6825 64.9085,85.8875 67.1875,84.7245 C67.2195,84.7035 67.2425,84.6925 67.2745,84.6715 C72.3295,81.8755 78.3195,78.1645 78.6215,77.9815 C78.3315,78.3145 73.7495,83.4995 73.4475,83.7785 C73.4475,83.7785 70.5655,85.8115 68.2955,87.3395 C68.0485,87.5115 67.8115,87.6615 67.5855,87.8225 C67.2955,88.0065 67.0265,88.1885 66.7795,88.3395 C66.3705,88.5965 66.0475,88.8025 65.8435,88.9095 C65.8335,88.9095 65.8335,88.9205 65.8225,88.9205 C63.5635,90.1885 59.7515,91.4685 58.7215,91.0975 C56.4625,90.1515 55.9595,88.7475 55.9695,87.3925 C55.9805,86.0375 56.8195,84.1985 56.8195,84.1985 L60.2515,76.4225 C59.6265,77.4655 49.5165,94.1365 44.1065,94.1365 C43.7625,94.1365 43.4395,94.0715 43.1385,93.9315 C37.7075,92.3835 43.7735,77.0895 44.2135,75.9705 C43.3965,77.3255 29.5655,100.2345 21.9505,97.4595 C17.6695,95.7605 23.9085,83.0365 24.8865,81.0905 C23.4885,83.5315 11.9055,103.2575 4.8925,100.3855 C-4.2175,95.5345 32.7705,45.5215 30.2215,44.4035 C29.0595,43.8975 3.6765,54.8145 2.8805,54.8785 C2.0855,54.9325 1.1605,54.7395 0.6545,53.7175 C-0.0545,52.2865 0.1385,51.3185 0.5145,50.7055 C0.8915,50.0925 1.4395,49.8455 1.4395,49.8455 C2.9565,48.9735 32.3505,39.5095 32.8675,37.9825 C34.4375,35.5835 36.6855,31.2385 38.2455,30.8835 C39.8155,30.5175 41.8695,31.8085 41.4075,33.4965 C41.3755,34.1205 40.2235,35.2825 40.4075,35.7665 C40.5895,36.2615 40.6115,36.5835 41.8695,36.1325 C43.1275,35.6805 47.7205,34.6695 57.2285,31.2705 C66.7475,27.8715 100.7025,16.1805 102.4125,15.6105 C104.1325,15.0305 111.3285,12.3845 117.6205,10.2435 C123.9125,8.0925 135.5175,2.8445 136.1295,3.1025 C136.7865,3.4035 83.6005,24.5275 83.6005,24.5275 L40.9655,40.5095 C40.9655,40.5095 39.0845,41.0795 37.9005,41.6065 C34.9215,43.8445 3.0855,95.0715 8.0225,96.1585" id="Fill-489"></path>
                    </g>
                </g>
            </g>
        </g>
    </g>
</svg>