<svg id="Layer_1" data-name="Layer 1" xmlns="http://www.w3.org/2000/svg" viewBox="0 0 913.32 119.62"><defs><style>.cls-1{fill:#fff;}.cls-2{fill:#2257ae;}</style></defs><polygon class="cls-1" points="206.9 111.47 206.9 111.53 206.89 111.53 206.9 111.47"/><rect class="cls-1" x="267.9" y="2.44" width="18.62" height="109.09"/><rect class="cls-1" x="685.74" y="2.44" width="18.62" height="109.09"/><polygon class="cls-1" points="341.01 2.44 322.46 2.44 322.46 111.53 377.01 111.53 377.01 97.08 341.01 97.08 341.01 2.44"/><polygon class="cls-1" points="432.99 111.2 432.99 111.53 432.96 111.53 432.99 111.2"/><path class="cls-1" d="M523.72,48.12q-12.83-4.6-17.05-8.14t-4.22-9.92q0-6.64,4-10.32t11-3.66a40.15,40.15,0,0,1,13.84,2.62,59.88,59.88,0,0,1,14.11,7.6l3-14a47.2,47.2,0,0,0-14.18-7.71A51.43,51.43,0,0,0,517,1.62q-15.28,0-24.14,8.53T484,32.85q0,12.27,7.43,19.23t22.84,12.41q11.73,4.37,16.16,8t4.43,10.16q0,7.09-4,11.25T519.22,98a49.64,49.64,0,0,1-16.09-2.79A59.22,59.22,0,0,1,487.45,87l-3.82,14.59a66,66,0,0,0,16.5,8,56.45,56.45,0,0,0,17.59,2.94q17,0,26.38-9.07t9.35-23.66q0-12.14-7-19.16T523.72,48.12Z"/><polygon class="cls-1" points="631.15 44.58 598.56 44.58 598.56 2.44 580.01 2.44 580.01 111.53 598.56 111.53 598.56 59.03 631.15 59.03 631.15 111.53 649.7 111.53 649.7 2.44 631.15 2.44 631.15 44.58"/><polygon class="cls-1" points="744.02 111.53 762.56 111.53 762.56 69.53 798.29 69.53 798.29 55.08 762.56 55.08 762.56 16.89 805.52 16.89 805.52 2.44 744.02 2.44 744.02 111.53"/><polygon class="cls-1" points="902.69 2.44 902.69 16.89 877.19 16.89 877.19 58.59 877.12 59.26 871.64 110.32 871.51 111.53 858.65 111.53 858.65 22.54 862.37 22.94 862.97 17.32 858.41 16.84 848.55 15.78 843.23 15.21 843.17 15.8 843.05 16.89 833.15 16.89 833.15 2.44 902.69 2.44"/><polygon class="cls-1" points="458.49 2.44 458.49 16.89 432.99 16.89 432.99 58.59 432.92 59.26 427.44 110.32 427.31 111.53 414.44 111.53 414.44 22.54 418.16 22.94 418.76 17.32 414.2 16.84 404.35 15.78 399.03 15.21 398.97 15.8 398.85 16.89 388.94 16.89 388.94 2.44 458.49 2.44"/><polygon class="cls-1" points="232.4 2.44 232.4 16.89 206.9 16.89 206.9 58.59 206.82 59.26 201.34 110.32 201.21 111.53 188.35 111.53 188.35 22.54 192.07 22.94 192.67 17.32 188.11 16.84 178.25 15.78 172.94 15.21 172.87 15.8 172.76 16.89 162.85 16.89 162.85 2.44 232.4 2.44"/><polygon class="cls-1" points="858.65 16.89 858.65 22.54 858.43 22.52 842.63 20.83 843.05 16.89 858.65 16.89"/><polygon class="cls-1" points="913.32 13.88 911.78 28.25 886.42 25.53 876.33 119.62 857.89 117.64 858.49 112.02 871.31 113.4 871.51 111.53 877.19 111.53 877.19 58.59 881.41 19.3 906.76 22.02 907.7 13.27 913.32 13.88"/><polygon class="cls-1" points="414.44 16.89 414.44 22.54 414.23 22.52 398.43 20.83 398.85 16.89 414.44 16.89"/><polygon class="cls-1" points="432.99 111.53 432.12 119.62 413.68 117.64 414.28 112.02 427.11 113.4 427.31 111.53 432.99 111.53"/><polygon class="cls-1" points="469.12 13.88 467.57 28.25 442.22 25.53 432.99 111.52 432.99 58.59 437.2 19.3 462.56 22.02 463.5 13.27 469.12 13.88"/><polygon class="cls-1" points="188.35 16.89 188.35 22.54 188.13 22.52 172.33 20.83 172.76 16.89 188.35 16.89"/><polygon class="cls-1" points="206.9 111.53 206.03 119.62 187.59 117.64 188.19 112.02 201.01 113.4 201.21 111.53 206.9 111.53"/><polygon class="cls-1" points="243.02 13.88 241.48 28.25 216.13 25.53 206.9 111.47 206.9 58.59 211.11 19.3 236.47 22.02 237.41 13.27 243.02 13.88"/><polygon class="cls-2" points="432.99 111.2 432.99 111.53 432.96 111.53 432.99 111.2"/><polygon class="cls-2" points="206.9 111.47 206.9 111.53 206.89 111.53 206.9 111.47"/><polygon class="cls-1" points="96.94 14.59 96.94 102.4 0 102.4 0 5.46 15.3 5.46 15.26 5.83 6.74 85.31 12.38 85.92 20.9 6.44 96.94 14.59"/><polygon class="cls-1" points="96.94 5.46 96.94 8.88 65.05 5.46 96.94 5.46"/><polygon class="cls-1" points="65.05 5.46 15.3 5.46 15.86 0.19 21.51 0.79 65.05 5.46"/><polygon class="cls-1" points="105.22 113.79 113.75 34.31 108.1 33.71 99.58 113.18 20.1 104.66 19.49 110.31 98.97 118.83 104.62 119.44 105.22 113.79"/><polygon class="cls-1" points="100.99 9.31 100.38 14.96 96.94 14.59 96.94 8.88 100.99 9.31"/></svg>