<?xml version="1.0" encoding="UTF-8"?>
<svg width="120px" height="54px" viewBox="0 0 120 54" version="1.1" xmlns="http://www.w3.org/2000/svg" xmlns:xlink="http://www.w3.org/1999/xlink">
    <!-- Generator: Sketch 47 (45396) - http://www.bohemiancoding.com/sketch -->
    <title>TiltShift signature</title>
    <desc>Created with Sketch.</desc>
    <defs></defs>
    <g id="Page-1" stroke="none" stroke-width="1" fill="none" fill-rule="evenodd">
        <g id="Menu-&amp;-Contact" transform="translate(-1392.000000, -940.000000)" fill="#FDFCFA">
            <g id="TiltShift" transform="translate(1392.457121, 940.648438)">
                <g id="text">
                    <path d="M19.5763951,28.732402 C19.5763951,28.732402 21.1365588,26.6863921 21.9042668,27.3617485 C22.6714482,28.0376297 22.6519659,28.7560158 21.9885146,29.8165406 C21.3566562,30.8282634 20.1792934,31.7497287 19.3204925,31.1735505 C18.461165,30.597897 19.5763951,28.732402 19.5763951,28.732402" id="Fill-479"></path>
                    <path d="M60.7788288,33.4295663 C60.230165,32.9095366 57.8022491,34.7362 53.154404,40.3069723 C48.5055058,45.8782693 47.545081,48.0239822 47.545081,48.0239822 C47.545081,48.0239822 46.2276562,50.7600416 47.7804482,52.0456851 C50.5206075,54.3131406 58.3282712,49.6391703 61.9967358,44.8744178 C65.6646739,40.1091406 67.6866208,35.2819426 67.2222049,31.8894178 C66.6150942,27.4557842 60.8672889,24.3004475 60.8425412,21.0475069 C60.8225323,18.3933089 64.3709438,13.703596 68.841342,9.42633861 C73.8356562,4.64741782 78.4434836,1.97590297 79.1611695,2.67749703 C80.4238332,3.91276436 73.2522403,10.3420317 73.2522403,10.3420317 C73.2522403,10.3420317 71.4935677,11.9724376 72.3386783,13.0466059 C72.9089305,13.7707644 74.8318863,12.0952297 74.8318863,12.0952297 C74.8318863,12.0952297 84.2513155,3.83300198 81.0056695,0.734338614 C78.3113199,-1.83799802 67.7187403,6.26470495 60.6829969,15.6063485 C58.0976429,19.039804 57.6411252,22.0434871 60.8973022,25.9345267 C64.1524261,29.8250416 64.3735765,30.2086356 64.3735765,30.2086356 C64.3735765,30.2086356 65.222373,31.5729921 65.0059615,33.9160119 C64.3546208,40.9539921 60.2922978,45.3451208 53.4719128,49.675903 C48.1469261,53.0574079 48.7361341,49.3112 50.5216606,46.8013089 C52.3061341,44.2919426 55.4859615,39.9921208 58.3893509,37.0419624 C61.2169173,34.1689426 61.2990588,33.9223089 60.7788288,33.4295663" id="Fill-481"></path>
                    <path d="M85.2679757,7.54756733 C85.2679757,7.54756733 85.9382721,6.43719109 86.6280509,6.98555743 C87.3178296,7.53444851 86.916073,8.23446832 86.916073,8.23446832 C86.916073,8.23446832 75.5241925,26.8668545 75.9270022,27.4661218 C76.4704004,28.2758149 78.9609757,24.7746663 83.6177721,23.494795 C84.487104,23.2560327 83.7288739,25.8766465 83.2260199,26.8217257 C82.7226394,27.7673297 76.8400376,38.116498 77.163865,37.8793099 C83.1854757,33.4619436 89.3145022,25.7234188 91.8898518,22.7060921 C92.2505376,22.2836663 93.688542,21.3485574 93.9412854,21.8428743 C94.326719,22.5985178 91.2127102,27.6125277 88.8500863,31.6095673 C87.8659668,33.2746069 86.5885597,35.7419931 85.6776305,37.0124188 C85.2800863,37.5670822 84.6866659,38.4250525 84.1595907,38.6003198 C83.978458,38.6601416 83.6335686,38.758795 83.4087323,38.6286564 C82.2877102,37.9811119 87.9012456,29.7540426 87.9012456,29.7540426 C87.9012456,29.7540426 79.3090243,39.9903891 76.1181394,40.0250228 C76.1181394,40.0250228 74.3994845,39.8775673 74.8091394,37.9895079 C75.2187942,36.1009238 81.7485243,25.9590327 81.7485243,25.9590327 C81.7485243,25.9590327 73.5243606,32.2146069 72.2780199,34.2322802 C71.0322058,36.248904 68.7780509,41.2314287 66.8866881,41.652805 C65.1164314,42.0468941 71.3065376,31.6846069 71.3065376,31.6846069 L85.2679757,7.54756733 Z" id="Fill-483"></path>
                    <path d="M94.4753637,15.779097 C94.4753637,15.779097 95.4989743,13.966602 96.4820407,14.9914436 C97.5135496,16.0666614 97.1565496,16.4911861 96.8753726,17.1250871 C96.5346956,17.8928 95.4642221,18.6290277 94.5806735,17.7437703 C93.6971248,16.8585129 94.4753637,15.779097 94.4753637,15.779097" id="Fill-485"></path>
                    <path d="M99.7835535,33.5894059 C99.5845181,34.8834455 99.9157173,35.3851089 101.068332,35.4953069 C103.147146,35.7471881 109.138217,31.4400198 109.427292,31.0716436 C109.595788,30.9210396 112.159554,28.0270297 112.159554,28.0270297 C112.159554,28.0270297 103.061846,33.6513267 102.514762,33.1423168 C101.953987,32.5010693 106.341191,26.0104059 106.620262,25.3219307 C106.94093,24.6791089 107.182615,24.3500891 107.511182,24.1386139 C107.749182,23.9853861 109.892235,22.2568515 110.86793,21.6539109 C112.018438,20.943396 114.544292,19.0721287 114.544292,19.0721287 L108.636943,21.6659802 C108.636943,21.6659802 118.526054,3.5200396 118.767739,2.9050297 C119.009425,2.2900198 119.134217,1.6109901 118.668222,1.35543564 C118.2017,1.09988119 117.771509,1.43624752 117.45716,1.83610891 C117.143337,2.2359703 107.457474,20.0502673 106.164797,22.0117921 C105.692483,22.7280792 100.508085,24.4114851 100.508085,24.4114851 C100.508085,24.4114851 108.692757,8.57865347 111.32708,4.09464356 C111.717779,3.42925743 111.638797,2.89453465 111.465036,2.78748515 C111.16385,2.60277228 110.915846,2.31678218 110.212377,3.17107921 C106.690819,7.44938614 99.0779783,23.0728416 99.0779783,23.0728416 C99.0779783,23.0728416 98.6504208,23.8809604 97.8663898,25.0931386 C97.4914872,25.6729901 95.75335,25.8372376 95.0772615,26.5220396 C94.7097305,26.8940891 92.091204,29.3777426 92.091204,29.3777426 L96.3225491,27.8124059 C96.3225491,27.8124059 89.7759695,39.6266832 88.1857925,41.7382871 C86.9994783,43.3141188 86.3328677,44.670604 85.1444473,44.3762178 C83.5837571,43.9889505 86.860996,40.2600594 86.4044783,39.9567525 C86.0258898,39.705396 84.1977128,41.0949406 83.4073633,42.3643168 C82.3721686,44.0272574 82.3195137,45.5401188 83.4305314,46.010297 C86.3749916,47.2544851 88.1894783,44.7540396 88.9492881,43.8918713 C92.5540403,39.7998515 98.4756066,27.0698812 99.9536288,26.648505 C101.432704,26.2276535 104.48616,24.9818911 104.48616,24.9818911 C104.48616,24.9818911 99.8083013,32.8804653 99.7835535,33.5894059" id="Fill-487"></path>
                    <path d="M4.22423673,50.4594109 C5.49848451,50.7354307 15.3238827,36.5524208 16.8361305,35.5816287 C18.3425863,34.486995 19.4014757,34.949302 18.5916438,36.4112624 C16.21375,40.7121337 11.3205332,48.3037277 12.8717456,49.1669455 C14.180219,49.6523416 22.9925376,37.9188762 25.6989978,34.1375099 C28.8482854,30.3949752 36.6290951,15.3597673 38.2150597,15.4442525 C39.5061571,15.6247673 38.0565686,17.3973812 37.7280022,18.158797 C37.3936438,18.9207376 26.599396,36.6033218 25.2745996,40.0184109 C23.9492765,43.4324505 23.1394447,46.6103515 23.7397102,47.1067673 C24.283635,47.7049851 29.0009845,41.0453515 31.8269712,37.5405297 L29.5901925,38.3869554 L26.9053208,39.397104 C26.9053208,39.397104 28.1342854,38.494005 28.9894004,37.4896287 C29.8387235,36.4847277 30.9944978,35.4352228 32.2176704,35.2489356 C33.950542,34.8144406 34.4828827,34.2272426 34.9020155,33.5555594 C36.1536217,31.5688465 45.4245642,15.6473317 45.4245642,15.6473317 C45.4245642,15.6473317 45.8436969,14.970401 46.1490951,14.5637178 C46.4492279,14.1517871 46.9705111,13.5703614 47.4459845,13.8133218 C47.9161925,14.0557574 47.7182102,14.9195 47.2537942,15.8000347 C47.0268518,16.4208168 46.6877544,16.9849257 46.6877544,16.9849257 L36.8560376,33.6626089 L43.4989757,31.563599 C43.4989757,31.563599 42.1568031,32.8560644 41.5391615,33.2622228 C40.916781,33.6741535 36.0630553,35.9883119 35.740281,36.2081832 C35.4175066,36.4285792 35.1795066,36.7670446 34.8793739,37.4161634 C34.6192588,38.1104109 33.8599757,39.8032624 33.0559358,41.4179257 C32.251896,43.0373119 31.2151217,45.0413416 31.7927456,45.6673713 C32.1781792,46.0116089 34.1774845,45.0696782 35.3774889,44.4593911 C35.3943385,44.4483713 35.4064491,44.442599 35.4232987,44.4315792 C38.0850022,42.9643713 41.2390288,41.0170149 41.3980465,40.9209851 C41.2453473,41.0957277 38.8327013,43.8165693 38.6736836,43.9629752 C38.6736836,43.9629752 37.1561704,45.029797 35.9609049,45.8316188 C35.8308473,45.9218762 35.7060553,46.0005891 35.5870553,46.0850743 C35.4343562,46.1816287 35.2927146,46.2771337 35.1626571,46.3563713 C34.9472987,46.4912327 34.7772235,46.5993317 34.6698075,46.6554802 C34.664542,46.6554802 34.664542,46.6612525 34.65875,46.6612525 C33.4692765,47.3266386 31.462073,47.9983218 30.9197279,47.8036386 C29.7302544,47.3072228 29.4654004,46.5704703 29.4706659,45.8594307 C29.476458,45.1483911 29.9182323,44.1833713 29.9182323,44.1833713 L31.7253473,40.102896 C31.3962544,40.6502129 26.0728473,49.3983614 23.224219,49.3983614 C23.0430863,49.3983614 22.8730111,49.3642525 22.7145199,49.2907871 C19.8548341,48.4784703 23.0488783,40.4529059 23.2805597,39.8657079 C22.8503695,40.5767475 15.5676748,52.598302 11.5580066,51.1421139 C9.30385177,50.2505594 12.5889889,43.5736089 13.1039535,42.5524406 C12.3678385,43.8333614 6.26882522,54.1846287 2.57613938,52.6775396 C-2.22071903,50.1319653 17.2552633,23.8875198 15.9130907,23.3008465 C15.3012412,23.0353218 1.93585619,28.7640446 1.51672345,28.7976287 C1.09811726,28.8259653 0.611059735,28.7246881 0.344626106,28.1883911 C-0.0286969027,27.4374703 0.0729269912,26.9295099 0.270909292,26.6078366 C0.469418142,26.2861634 0.757966814,26.1565495 0.757966814,26.1565495 C1.55674115,25.6989653 17.0341128,20.7327079 17.3063385,19.9314109 C18.1330199,18.6725297 19.3167013,16.3924802 20.1381173,16.2061931 C20.9647987,16.0141337 22.0463296,16.6915891 21.8030642,17.5773713 C21.7862146,17.9048168 21.1796305,18.5145792 21.2765155,18.7685594 C21.3723473,19.0283119 21.3839314,19.1972822 22.0463296,18.9606188 C22.7087279,18.7234307 25.1271659,18.1929059 30.1335907,16.4092723 C35.1458075,14.6256386 53.0247677,8.49075743 53.9251659,8.19164851 C54.8308296,7.88729208 58.6198739,6.49879703 61.9329181,5.37530198 C65.2459624,4.24655941 71.3565597,1.49265842 71.6788075,1.62804455 C72.02475,1.78599505 44.0197323,12.8708663 44.0197323,12.8708663 L21.5703296,21.2574604 C21.5703296,21.2574604 20.5798916,21.5565693 19.956458,21.8331139 C18.3878695,23.0075099 1.62466593,49.889005 4.22423673,50.4594109" id="Fill-489"></path>
                </g>
            </g>
        </g>
    </g>
</svg>