<?xml version="1.0" encoding="UTF-8"?>
<svg width="1599px" height="284px" viewBox="0 0 1599 284" version="1.1" xmlns="http://www.w3.org/2000/svg" xmlns:xlink="http://www.w3.org/1999/xlink">
    <!-- Generator: Sketch 48.2 (47327) - http://www.bohemiancoding.com/sketch -->
    <title>angled</title>
    <desc>Created with Sketch.</desc>
    <defs></defs>
    <g id="Huisstijl-Basis" stroke="none" stroke-width="1" fill="none" fill-rule="evenodd" transform="translate(-1.000000, -420.000000)">
        <g id="Group" transform="translate(0.000000, 396.000000)">
            <g id="angled" transform="translate(1.000000, 24.000000)">
                <polygon id="Path-2" fill="#FAF0F1" points="1599 -2.27373675e-13 1599 284 0 284"></polygon>
                <g id="TiltShift-zwart" opacity="0.597373188" transform="translate(1501.000000, 225.000000)" fill="#1A1919">
                    <g id="text-zw">
                        <path d="M13.1198095,19.3715617 C13.1198095,19.3715617 14.1689524,17.9828809 14.6851429,18.4416894 C15.2017143,18.9001149 15.188381,19.3876468 14.7422857,20.1072638 C14.3171429,20.7935617 13.5247619,21.418966 12.9472381,21.0283277 C12.3693333,20.6373064 13.1198095,19.3715617 13.1198095,19.3715617" id="Fill-467"></path>
                        <path d="M40.8352,22.5588255 C40.4660571,22.2061021 38.8329143,23.4458043 35.7060571,27.2261872 C32.5792,31.0061872 31.9334857,32.4618894 31.9334857,32.4618894 C31.9334857,32.4618894 31.0473905,34.3189532 32.0919619,35.1909957 C33.9346286,36.7294213 39.186819,33.5579745 41.6542476,30.3244851 C44.1220571,27.0909957 45.4820571,23.8157617 45.1696762,21.5136766 C44.7612952,18.5053787 40.8946286,16.3641447 40.8778667,14.1570383 C40.8645333,12.3558894 43.251581,9.17333617 46.2584381,6.2711234 C49.6184381,3.02844255 52.7174857,1.21542128 53.2005333,1.69184681 C54.0496762,2.52980426 49.2256762,6.89231489 49.2256762,6.89231489 C49.2256762,6.89231489 48.0424381,7.99874043 48.6112,8.72754894 C48.994819,9.21891064 50.2881524,8.08222979 50.2881524,8.08222979 C50.2881524,8.08222979 56.6241524,2.47542128 54.4412952,0.372868085 C52.6287238,-1.37236596 45.5037714,4.1256766 40.770819,10.4647404 C39.0317714,12.7944 38.7247238,14.8326128 40.914819,17.4728681 C43.1045333,20.1131234 43.2534857,20.373166 43.2534857,20.373166 C43.2534857,20.373166 43.8245333,21.2988255 43.6786286,22.8889532 C43.2405333,27.6646979 40.5079619,30.6442723 35.9201524,33.5832511 C32.3376762,35.8776766 32.7342476,33.3354638 33.9353905,31.6323574 C35.1361524,29.929634 37.274819,27.0117191 39.227581,25.0098894 C41.1296762,23.0605277 41.1852952,22.8935489 40.8352,22.5588255" id="Fill-469"></path>
                        <path d="M57.308419,4.99622553 C57.308419,4.99622553 57.7594667,4.24290638 58.2230857,4.6151617 C58.6870857,4.98741702 58.4169905,5.46231064 58.4169905,5.46231064 C58.4169905,5.46231064 50.7541333,18.1055872 51.0249905,18.5123106 C51.3907048,19.0618851 53.0661333,16.6858851 56.1983238,15.8172894 C56.7827048,15.6552894 56.2729905,17.4338426 55.9350857,18.0749489 C55.596419,18.7164383 51.6390857,25.7395021 51.8569905,25.5782681 C55.9076571,22.5810766 60.0303238,17.3300553 61.7628952,15.2822681 C62.0055619,14.995417 62.972419,14.3612043 63.1423238,14.6966936 C63.4021333,15.2095021 61.3072762,18.6115021 59.7179429,21.3237574 C59.0562286,22.4535447 58.1968,24.1279277 57.5842286,24.9900128 C57.3168,25.3664809 56.9175619,25.9486085 56.5625143,26.0673319 C56.4409905,26.1079277 56.2086095,26.1749489 56.0577524,26.0872468 C55.3038476,25.6475872 59.0798476,20.0649064 59.0798476,20.0649064 C59.0798476,20.0649064 53.3000381,27.0109915 51.1533714,27.0339702 C51.1533714,27.0339702 49.9975619,26.9343957 50.2729905,25.6533319 C50.5488,24.3715021 54.941181,17.4897574 54.941181,17.4897574 C54.941181,17.4897574 49.4089905,21.7346936 48.5705143,23.1034596 C47.7320381,24.4722255 46.2158476,27.8531617 44.9438476,28.1388638 C43.7533714,28.406183 47.917181,21.3746936 47.917181,21.3746936 L57.308419,4.99622553 Z" id="Fill-471"></path>
                        <path d="M63.5022476,10.5819319 C63.5022476,10.5819319 64.1910095,9.35218723 64.851581,10.0472936 C65.5452952,10.7772511 65.3052952,11.0648681 65.1163429,11.4953362 C64.8873905,12.0161872 64.1670095,12.5155915 63.5731048,11.9146979 C62.978819,11.3141872 63.5022476,10.5819319 63.5022476,10.5819319" id="Fill-473"></path>
                        <path d="M67.0725333,22.6672851 C66.938819,23.5454553 67.1612952,23.8855404 67.9369143,23.9606043 C69.3350095,24.1317957 73.3654857,21.2085191 73.5597714,20.9592 C73.6729143,20.8565617 75.3974857,18.8930298 75.3974857,18.8930298 C75.3974857,18.8930298 69.2774857,22.7094128 68.9094857,22.363966 C68.5323429,21.9289021 71.4839619,17.5246468 71.6713905,17.0574128 C71.8870095,16.620817 72.0496762,16.3975404 72.2710095,16.2543064 C72.4306286,16.1505191 73.8725333,14.9774553 74.5285333,14.568817 C75.3026286,14.0862638 77.0016762,12.8163064 77.0016762,12.8163064 L73.0283429,14.5764766 C73.0283429,14.5764766 79.6801524,2.26332766 79.8424381,1.84588085 C80.0051048,1.42843404 80.0892952,0.967710638 79.7757714,0.794604255 C79.4618667,0.621114894 79.1727238,0.849370213 78.9612952,1.12090213 C78.7498667,1.39243404 72.234819,13.4800085 71.3651048,14.8108596 C71.0473905,15.2972426 67.5601524,16.4396681 67.5601524,16.4396681 C67.5601524,16.4396681 73.0656762,5.69634894 74.8374857,2.6532 C75.1003429,2.20166809 75.0473905,1.83898723 74.9300571,1.76622128 C74.7281524,1.64098723 74.5609143,1.44681702 74.0877714,2.02664681 C71.7190095,4.92962553 66.5978667,15.5316255 66.5978667,15.5316255 C66.5978667,15.5316255 66.3102476,16.0796681 65.7830095,16.9019234 C65.530819,17.2956255 64.3616762,17.4070723 63.906819,17.8716255 C63.6599619,18.1240085 61.8980571,19.8094979 61.8980571,19.8094979 L64.7445333,18.7474979 C64.7445333,18.7474979 60.3407238,26.7640085 59.2710095,28.1967319 C58.4732952,29.2660085 58.0245333,30.1866894 57.2252952,29.9867745 C56.1757714,29.724434 58.3799619,27.1937106 58.0725333,26.9880511 C57.8184381,26.8176255 56.5883429,27.7605191 56.0569143,28.6218383 C55.3605333,29.7500936 55.3251048,30.7768596 56.0725333,31.0958809 C58.0531048,31.939966 59.2736762,30.2433702 59.7845333,29.6581787 C62.2089143,26.881583 66.1925333,18.2434979 67.1872,17.9577957 C68.1818667,17.6720936 70.2359619,16.8268596 70.2359619,16.8268596 C70.2359619,16.8268596 67.0892952,22.1862638 67.0725333,22.6672851" id="Fill-475"></path>
                        <path d="M2.79241905,34.1147489 C3.6495619,34.3024085 10.2590857,24.6781532 11.2762286,24.0194298 C12.2895619,23.2764511 13.0019429,23.5904936 12.457181,24.5824085 C10.857181,27.5007064 7.56575238,32.6517702 8.6095619,33.2377277 C9.4895619,33.5670894 15.417181,25.6049617 17.2381333,23.0390043 C19.3558476,20.4998553 24.5905143,10.2973021 25.657181,10.3547489 C26.5257524,10.4773021 25.5505143,11.6798553 25.3295619,12.1968766 C25.1048,12.7138979 17.8438476,24.7126213 16.952419,27.0296426 C16.0609905,29.3466638 15.5162286,31.502834 15.9200381,31.8398553 C16.2857524,32.2458128 19.4590857,27.7266638 21.3600381,25.348366 L19.8552762,25.922834 L18.0495619,26.608366 C18.0495619,26.608366 18.8762286,25.9956 19.4510857,25.3138979 C20.0225143,24.6321957 20.8000381,23.9198553 21.6228952,23.7934723 C22.7886095,23.4985787 23.1467048,23.1002809 23.4286095,22.6445362 C24.2705143,21.2964511 30.5067048,10.4926213 30.5067048,10.4926213 C30.5067048,10.4926213 30.7886095,10.0330468 30.9943238,9.75730213 C31.1962286,9.47772766 31.5463238,9.08325957 31.8667048,9.24794043 C32.1828952,9.41262128 32.0495619,9.99857872 31.7368,10.5960255 C31.5848,11.0173021 31.3558476,11.4002809 31.3558476,11.4002809 L24.7428952,22.7173021 L29.2114667,21.2926213 C29.2114667,21.2926213 28.3082286,22.1696426 27.8933714,22.4453872 C27.4743238,22.7249617 24.2095619,24.2951745 23.992419,24.4445362 C23.7752762,24.5938979 23.6152762,24.8236851 23.4133714,25.2641106 C23.2381333,25.7351745 22.7276571,26.8841106 22.1867048,27.9794298 C21.6457524,29.0785787 20.9486095,30.4381532 21.337181,30.8632596 C21.5962286,31.0968766 22.9409905,30.4573021 23.7486095,30.0436851 C23.7600381,30.0360255 23.7676571,30.0321957 23.7790857,30.0245362 C25.5695619,29.0287915 27.6914667,27.7075149 27.7981333,27.6424085 C27.6952762,27.7611319 26.072419,29.6070894 25.9657524,29.7066638 C25.9657524,29.7066638 24.9448,30.4304936 24.1409905,30.9743234 C24.0533714,31.0356 23.9695619,31.089217 23.8895619,31.1466638 C23.7867048,31.2117702 23.6914667,31.2768766 23.6038476,31.3304936 C23.4590857,31.4224085 23.3448,31.4951745 23.272419,31.5334723 C23.2686095,31.5334723 23.2686095,31.5373021 23.2648,31.5373021 C22.4648,31.989217 21.1147048,32.4445787 20.7497524,32.312834 C19.9497524,31.9758128 19.7714667,31.4760255 19.7752762,30.9934723 C19.7790857,30.5109191 20.0762286,29.8560255 20.0762286,29.8560255 L21.2914667,27.0870894 C21.0701333,27.4585787 17.4895619,33.3947489 15.5733714,33.3947489 C15.4510857,33.3947489 15.337181,33.3717702 15.2305143,33.321983 C13.3067048,32.7704936 15.4552762,27.3245362 15.6114667,26.9262383 C15.3219429,27.4087915 10.4228952,35.5662383 7.72575238,34.5781532 C6.2095619,33.9730468 8.41908571,29.4424085 8.76575238,28.749217 C8.27051429,29.6185787 4.16765714,36.6424085 1.68384762,35.6198553 C-1.54281905,33.8926213 11.5581333,16.0841106 10.6552762,15.6858128 C10.2438476,15.5058128 1.25337143,19.3930468 0.971466667,19.4160255 C0.689180952,19.4351745 0.361942857,19.3662383 0.182895238,19.0024085 C-0.0685333333,18.4930468 3.80952381e-05,18.148366 0.133371429,17.9300681 C0.266704762,17.7117702 0.460990476,17.6236851 0.460990476,17.6236851 C0.998133333,17.3134723 11.4095619,13.9432596 11.592419,13.3994298 C12.1486095,12.5453872 12.9448,10.9981532 13.497181,10.8717702 C14.0533714,10.7415574 14.7809905,11.2011319 14.617181,11.8024085 C14.6057524,12.0245362 14.1977524,12.4381532 14.2628952,12.6104936 C14.3276571,12.7866638 14.3352762,12.9015574 14.7809905,12.7407064 C15.2267048,12.5798553 16.8533714,12.2198553 20.2209905,11.0096426 C23.592419,9.79942979 35.6190857,5.63645106 36.2248,5.43347234 C36.8343238,5.22666383 39.3828952,4.28453617 41.6114667,3.52240851 C43.8400381,2.75645106 47.9505143,0.887514894 48.1676571,0.979429787 C48.4000381,1.08666383 29.5619429,8.60836596 29.5619429,8.60836596 L14.4609905,14.2994298 C14.4609905,14.2994298 13.7943238,14.5024085 13.3752762,14.6900681 C12.3200381,15.4866638 1.04384762,33.7279404 2.79241905,34.1147489" id="Fill-477"></path>
                    </g>
                </g>
            </g>
        </g>
    </g>
</svg>