<?xml version="1.0" encoding="UTF-8"?>
<svg width="32px" height="26px" viewBox="0 0 32 26" version="1.1" xmlns="http://www.w3.org/2000/svg" xmlns:xlink="http://www.w3.org/1999/xlink">
    <!-- Generator: Sketch 64 (93537) - https://sketch.com -->
    <title>Fill 1</title>
    <desc>Created with Sketch.</desc>
    <g id="Welcome" stroke="none" stroke-width="1" fill="none" fill-rule="evenodd">
        <g id="Desktop" transform="translate(-773.000000, -3858.000000)" fill="#F9F9F6">
            <g id="Footer" transform="translate(-38.491581, 3664.707332)">
                <g id="Socials" transform="translate(811.491581, 187.292668)">
                    <path d="M32,9.078 C30.823,9.6 29.557,9.953 28.229,10.112 C29.585,9.299 30.626,8.013 31.116,6.48 C29.848,7.232 28.442,7.778 26.947,8.073 C25.749,6.797 24.043,6 22.155,6 C18.529,6 15.59,8.939 15.59,12.565 C15.59,13.079 15.648,13.58 15.76,14.061 C10.303,13.787 5.466,11.173 2.228,7.201 C1.663,8.171 1.339,9.299 1.339,10.502 C1.339,12.779 2.498,14.789 4.259,15.966 C3.183,15.932 2.171,15.637 1.286,15.145 C1.285,15.173 1.285,15.2 1.285,15.228 C1.285,18.409 3.548,21.062 6.552,21.665 C6.001,21.815 5.421,21.895 4.822,21.895 C4.399,21.895 3.988,21.854 3.587,21.778 C4.422,24.386 6.847,26.284 9.72,26.337 C7.473,28.098 4.642,29.147 1.566,29.147 C1.036,29.147 0.514,29.116 0,29.056 C2.905,30.918 6.356,32.005 10.064,32.005 C22.14,32.005 28.743,22.001 28.743,13.326 C28.743,13.041 28.737,12.758 28.724,12.476 C30.007,11.551 31.12,10.395 32,9.078" id="Fill-1"></path>
                </g>
            </g>
        </g>
    </g>
</svg>